HIERARCHY
ROOT hips
{
  OFFSET 0 10.680822821525009 1.3929502295107734
  CHANNELS 6 Xposition Yposition Zposition Yrotation Xrotation Zrotation
  JOINT spine
  {
    OFFSET -7.042017322922631e-31 0.6058489940359625 0
    CHANNELS 3 Yrotation Xrotation Zrotation
    JOINT chest
    {
      OFFSET 0 1.2699794144455032 0
      CHANNELS 3 Yrotation Xrotation Zrotation
      JOINT upperChest
      {
        OFFSET 0 1.217799211677689 0
        CHANNELS 3 Yrotation Xrotation Zrotation
        JOINT neck
        {
          OFFSET 0 1.5248826104153006 0
          CHANNELS 3 Yrotation Xrotation Zrotation
          JOINT head
          {
            OFFSET 0 0.8197772727844447 0
            CHANNELS 3 Yrotation Xrotation Zrotation
            JOINT leftEye
            {
              OFFSET 0.2793952361220866 0.6769952096623495 0.1830357412467788
              CHANNELS 3 Yrotation Xrotation Zrotation
              End Site
              {
                OFFSET 0.2793952361220866 0.6769952096623495 0.1830357412467788
              }
            }
            JOINT rightEye
            {
              OFFSET -0.27939522230689573 0.676995205357064 0.18303631459760622
              CHANNELS 3 Yrotation Xrotation Zrotation
              End Site
              {
                OFFSET -0.27939522230689573 0.676995205357064 0.18303631459760622
              }
            }
          }
        }
        JOINT leftShoulder
        {
          OFFSET 0.41486978509200423 1.1670505408695453 0
          CHANNELS 3 Yrotation Xrotation Zrotation
          JOINT leftUpperArm
          {
            OFFSET 0.9737926108153417 0 0
            CHANNELS 3 Yrotation Xrotation Zrotation
            JOINT leftLowerArm
            {
              OFFSET 2.5269332222665284 0 0
              CHANNELS 3 Yrotation Xrotation Zrotation
              JOINT leftHand
              {
                OFFSET 2.4263782738425914 0 0
                CHANNELS 3 Yrotation Xrotation Zrotation
                JOINT leftIndexProximal
                {
                  OFFSET 0.724320348022514 0.08170607082582437 0.20360061616140124
                  CHANNELS 3 Yrotation Xrotation Zrotation
                  JOINT leftIndexIntermediate
                  {
                    OFFSET 0.36548960630744587 -0.010566596513783999 -0.01414783573280308
                    CHANNELS 3 Yrotation Xrotation Zrotation
                    JOINT leftIndexDistal
                    {
                      OFFSET 0.22502819650693362 -0.007863819831430696 -0.007567681939621526
                      CHANNELS 3 Yrotation Xrotation Zrotation
                      End Site
                      {
                        OFFSET 0.22502819650693362 -0.007863819831430696 -0.007567681939621526
                      }
                    }
                  }
                }
                JOINT leftLittleProximal
                {
                  OFFSET 0.6720322998298205 0.08170601055037707 -0.3230036039466837
                  CHANNELS 3 Yrotation Xrotation Zrotation
                  JOINT leftLittleIntermediate
                  {
                    OFFSET 0.34583592281688713 5.476543019078406e-8 1.3869203337180114e-7
                    CHANNELS 3 Yrotation Xrotation Zrotation
                    JOINT leftLittleDistal
                    {
                      OFFSET 0.19925728062053938 0.003098047439490381 0.0038303983709246925
                      CHANNELS 3 Yrotation Xrotation Zrotation
                      End Site
                      {
                        OFFSET 0.19925728062053938 0.003098047439490381 0.0038303983709246925
                      }
                    }
                  }
                }
                JOINT leftMiddleProximal
                {
                  OFFSET 0.7300436596551069 0.0817073395107144 0.022661722987926763
                  CHANNELS 3 Yrotation Xrotation Zrotation
                  JOINT leftMiddleIntermediate
                  {
                    OFFSET 0.40758254347686607 -0.0000012383587111308714 2.408460318820138e-7
                    CHANNELS 3 Yrotation Xrotation Zrotation
                    JOINT leftMiddleDistal
                    {
                      OFFSET 0.2514490105498507 0.0000013869132886590307 9.738618134136345e-8
                      CHANNELS 3 Yrotation Xrotation Zrotation
                      End Site
                      {
                        OFFSET 0.2514490105498507 0.0000013869132886590307 9.738618134136345e-8
                      }
                    }
                  }
                }
                JOINT leftRingProximal
                {
                  OFFSET 0.7217261161191838 0.08170601902187746 -0.15043395722184966
                  CHANNELS 3 Yrotation Xrotation Zrotation
                  JOINT leftRingIntermediate
                  {
                    OFFSET 0.37808807487521556 0.0000013754022405443322 2.2046919317952884e-7
                    CHANNELS 3 Yrotation Xrotation Zrotation
                    JOINT leftRingDistal
                    {
                      OFFSET 0.21812105442344254 -0.002713483731960231 -0.004991354517454624
                      CHANNELS 3 Yrotation Xrotation Zrotation
                      End Site
                      {
                        OFFSET 0.21812105442344254 -0.002713483731960231 -0.004991354517454624
                      }
                    }
                  }
                }
                JOINT leftThumbProximal
                {
                  OFFSET 0.10793587079521427 -0.1652791240518252 -0.07775251827190094
                  CHANNELS 3 Yrotation Xrotation Zrotation
                  JOINT leftThumbIntermediate
                  {
                    OFFSET 0.40355819082296684 -0.017484006740276614 0.3177776014416309
                    CHANNELS 3 Yrotation Xrotation Zrotation
                    JOINT leftThumbDistal
                    {
                      OFFSET 0.2318764658022603 -0.018510186824293617 0.21396001800186287
                      CHANNELS 3 Yrotation Xrotation Zrotation
                      End Site
                      {
                        OFFSET 0.2318764658022603 -0.018510186824293617 0.21396001800186287
                      }
                    }
                  }
                }
              }
            }
          }
        }
        JOINT rightShoulder
        {
          OFFSET -0.4148697850920044 1.1670505408695453 0
          CHANNELS 3 Yrotation Xrotation Zrotation
          JOINT rightUpperArm
          {
            OFFSET -0.9737926108153414 0 0
            CHANNELS 3 Yrotation Xrotation Zrotation
            JOINT rightLowerArm
            {
              OFFSET -2.5269332222665293 0 0
              CHANNELS 3 Yrotation Xrotation Zrotation
              JOINT rightHand
              {
                OFFSET -2.42637827384259 0 0
                CHANNELS 3 Yrotation Xrotation Zrotation
                JOINT rightIndexProximal
                {
                  OFFSET -0.724320348022514 0.08170607082582437 0.20360061616140124
                  CHANNELS 3 Yrotation Xrotation Zrotation
                  JOINT rightIndexIntermediate
                  {
                    OFFSET -0.36548960630744587 -0.010566596513783999 -0.01414783573280308
                    CHANNELS 3 Yrotation Xrotation Zrotation
                    JOINT rightIndexDistal
                    {
                      OFFSET -0.22502819650693362 -0.007863819831430696 -0.007567681939621526
                      CHANNELS 3 Yrotation Xrotation Zrotation
                      End Site
                      {
                        OFFSET -0.22502819650693362 -0.007863819831430696 -0.007567681939621526
                      }
                    }
                  }
                }
                JOINT rightLittleProximal
                {
                  OFFSET -0.6720322998298205 0.08170601055037707 -0.3230036039466837
                  CHANNELS 3 Yrotation Xrotation Zrotation
                  JOINT rightLittleIntermediate
                  {
                    OFFSET -0.34583592281688713 5.476543019078406e-8 1.3869203337180114e-7
                    CHANNELS 3 Yrotation Xrotation Zrotation
                    JOINT rightLittleDistal
                    {
                      OFFSET -0.19925728062053938 0.003098047439490381 0.0038303983709246925
                      CHANNELS 3 Yrotation Xrotation Zrotation
                      End Site
                      {
                        OFFSET -0.19925728062053938 0.003098047439490381 0.0038303983709246925
                      }
                    }
                  }
                }
                JOINT rightMiddleProximal
                {
                  OFFSET -0.7300436596551069 0.0817073395107144 0.022661722987926763
                  CHANNELS 3 Yrotation Xrotation Zrotation
                  JOINT rightMiddleIntermediate
                  {
                    OFFSET -0.40758254347686607 -0.0000012383587111308714 2.408460318820138e-7
                    CHANNELS 3 Yrotation Xrotation Zrotation
                    JOINT rightMiddleDistal
                    {
                      OFFSET -0.2514490105498507 0.0000013869132886590307 9.738618134136345e-8
                      CHANNELS 3 Yrotation Xrotation Zrotation
                      End Site
                      {
                        OFFSET -0.2514490105498507 0.0000013869132886590307 9.738618134136345e-8
                      }
                    }
                  }
                }
                JOINT rightRingProximal
                {
                  OFFSET -0.7217261161191838 0.08170601902187746 -0.15043395722184966
                  CHANNELS 3 Yrotation Xrotation Zrotation
                  JOINT rightRingIntermediate
                  {
                    OFFSET -0.37808807487521556 0.0000013754022405443322 2.2046919317952884e-7
                    CHANNELS 3 Yrotation Xrotation Zrotation
                    JOINT rightRingDistal
                    {
                      OFFSET -0.21812105442344254 -0.002713483731960231 -0.004991354517454624
                      CHANNELS 3 Yrotation Xrotation Zrotation
                      End Site
                      {
                        OFFSET -0.21812105442344254 -0.002713483731960231 -0.004991354517454624
                      }
                    }
                  }
                }
                JOINT rightThumbProximal
                {
                  OFFSET -0.10793587079521427 -0.1652791240518252 -0.07775251827190094
                  CHANNELS 3 Yrotation Xrotation Zrotation
                  JOINT rightThumbIntermediate
                  {
                    OFFSET -0.40355819082296684 -0.017484006740276614 0.3177776014416309
                    CHANNELS 3 Yrotation Xrotation Zrotation
                    JOINT rightThumbDistal
                    {
                      OFFSET -0.2318764658022603 -0.018510186824293617 0.21396001800186287
                      CHANNELS 3 Yrotation Xrotation Zrotation
                      End Site
                      {
                        OFFSET -0.2318764658022603 -0.018510186824293617 0.21396001800186287
                      }
                    }
                  }
                }
              }
            }
          }
        }
      }
    }
  }
  JOINT leftUpperLeg
  {
    OFFSET 0.8486251390888677 -0.4421577294694363 0
    CHANNELS 3 Yrotation Xrotation Zrotation
    JOINT leftLowerLeg
    {
      OFFSET 0 -4.10147812638609 0
      CHANNELS 3 Yrotation Xrotation Zrotation
      JOINT leftFoot
      {
        OFFSET -0.0002543926476658853 -4.77292286812444 0.007402811231737388
        CHANNELS 3 Yrotation Xrotation Zrotation
        JOINT leftToes
        {
          OFFSET 0 -0.7027875951174846 1.2062924140498823
          CHANNELS 3 Yrotation Xrotation Zrotation
          End Site
          {
            OFFSET 0 -0.7027875951174846 1.2062924140498823
          }
        }
      }
    }
  }
  JOINT rightUpperLeg
  {
    OFFSET -0.8486251390888677 -0.4421577294694363 0
    CHANNELS 3 Yrotation Xrotation Zrotation
    JOINT rightLowerLeg
    {
      OFFSET 0 -4.10147812638609 0
      CHANNELS 3 Yrotation Xrotation Zrotation
      JOINT rightFoot
      {
        OFFSET 0.0002543926476658853 -4.77292286812444 0.007402811231737388
        CHANNELS 3 Yrotation Xrotation Zrotation
        JOINT rightToes
        {
          OFFSET 0 -0.7027875951174846 1.2062924140498823
          CHANNELS 3 Yrotation Xrotation Zrotation
          End Site
          {
            OFFSET 0 -0.7027875951174846 1.2062924140498823
          }
        }
      }
    }
  }
}
MOTION
Frames: 4
Frame Time: 0.03333333333333333
-0.05757549777626991 -8.746003480819137 -0.07120660692453384 159.4346164741873 -71.12631827391286 -154.80036315896803 1.8551760474258028 33.6952884931766 1.7837223574249172 8.217213275835201 42.644692436344364 5.5081534332206665 0 0 0 1.7023614610982907 16.52098250422621 3.535338698806382 18.127114664443816 18.00194853752718 -5.501286464089028 0 0 0 0 0 0 -0.390154646241697 3.443412288832332 13.988297932715328 -39.12215159384378 -70.21731885379913 -17.33263002071983 -121.80110701718907 1.1302015157448069 0.6290615068518463 -24.796448369275726 -23.90192593636649 28.95581746223234 5.45931295405325 1.1906942900993 -40.41365248759311 2.7044959718918946 0.7714749819267037 -31.839574069692187 1.7190991378833806 0.2968971121013212 -19.59722340081187 12.25351343207386 3.316009141381329 -44.97620299313748 2.3852696007000325 0.5888052736703888 -27.73053732801615 0.8948778067622907 0.07872771999392453 -10.056286056740106 8.779990582425338 3.542114716155958 -35.99595388027227 3.422673987529394 1.3097581253793225 -41.87303086327584 2.023506846014697 0.41632287661332745 -23.25191154610989 8.091488270583593 2.9332489011684233 -34.61191309192936 2.985540112018009 0.9590909675509594 -35.61387850626371 2.1357071043943034 0.46612094277572796 -24.623278512011897 -5.776268875616956 0.6587782030003072 19.22948386925103 27.822854375748317 17.082753518682033 7.416981562142763 -0.9314094769804755 3.268968178594766 3.92284864559839 34.172562225355115 2.0053083117749355 7.69635940452764 48.146977969486926 -62.64190208143756 13.185497605922817 117.47118660001253 1.0814997046434713 -0.6566637945780016 6.9998886301427214 -12.491575512586207 -13.947845521270326 -3.022810020495776 0.2068277019630467 18.92981024190787 -1.9095143451968073 0.4960133591676887 29.11969619652561 -1.0565578728850944 0.14494303868288094 15.62239599518694 -0.6553280568548768 -2.4284825809796007 39.44477876845435 -1.9437984163744961 0.5153343690198502 29.69398760358825 -0.9205820544571592 0.10953521680134025 13.570520956458852 -0.9474393900285633 -0.7527202380475403 21.285259414587543 -2.344506385379413 0.7774463400576045 36.68659780248915 -1.8613005028076435 0.46959789178620126 28.31734372827865 -2.2040880244899665 -1.101428689994901 38.59624112966734 -1.5098393551780436 0.302145703949664 22.631778802983202 -1.415118597841976 0.26409502857094724 21.141492272334528 -4.233486882350746 -22.659424409284746 -15.568850738646036 -21.22185330407199 12.813775987052395 -11.46590757092963 -34.083461013472025 1.0991570197880947 -30.062363434329892 70.57607326950843 -76.6480506509565 -77.91524386459174 -175.110839500465 64.20052967828822 -175.14260533341903 0.29324891465724456 -22.179504397307724 -2.1605458539676405 0.0000019509603823415717 0.6197686171673908 0.0000037431104959918153 -9.009099770701875 -0.051285269303898984 -7.260293495912762 -7.987569668188662 35.68524921965787 -4.63675821981103 -0.3960033966230675 -14.750259990344516 2.42126367412777 0.000003335910386379794 -1.7257338292466444 -8.212583614205665e-7
-0.050033506006002426 -8.750587912467392 -0.061516884714365005 159.70901147792569 -71.32080951402128 -155.5795700778972 1.6810014538626092 33.62673889381494 1.537278376750968 7.788411926490895 42.56461397181989 5.110483011804002 0 0 0 1.7083704270523232 16.601504035269905 3.200596470579427 17.46489840173361 17.846836583420743 -5.228670969184823 0 0 0 0 0 0 -1.797230826752111 3.662254571178397 13.208206342039535 -39.25913251041355 -70.57486449404175 -17.174516896845624 -121.77401099212543 1.1298811816036745 0.6292490045532203 -24.27298073823819 -24.023422436861388 27.866078343891587 5.45931295405325 1.1906942900993 -40.41365248759311 2.7044959718918946 0.7714749819267037 -31.839574069692187 1.7190991378833806 0.2968971121013212 -19.59722340081187 12.25351343207386 3.316009141381329 -44.97620299313748 2.3852696007000325 0.5888052736703888 -27.73053732801615 0.8948778067622907 0.07872771999392453 -10.056286056740106 8.779990582425338 3.542114716155958 -35.99595388027227 3.422673987529394 1.3097581253793225 -41.87303086327584 2.023506846014697 0.41632287661332745 -23.25191154610989 8.091488270583593 2.9332489011684233 -34.61191309192936 2.985540112018009 0.9590909675509594 -35.61387850626371 2.1357071043943034 0.46612094277572796 -24.623278512011897 -5.776268875616956 0.6587782030003072 19.22948386925103 27.822854375748317 17.082753518682033 7.416981562142763 -0.9314094769804755 3.268968178594766 3.92284864559839 33.632391528093194 2.090438673367884 7.53969648621878 48.37825780789542 -62.42029366324608 12.676442929536487 117.52860746774655 1.0821697162213624 -0.6563147859712881 6.825269700006459 -12.5050305252137 -14.206868934492048 -3.022810020495776 0.2068277019630467 18.92981024190787 -1.9095143451968073 0.4960133591676887 29.11969619652561 -1.0565578728850944 0.14494303868288094 15.62239599518694 -0.6553280568548768 -2.4284825809796007 39.44477876845435 -1.9437984163744961 0.5153343690198502 29.69398760358825 -0.9205820544571592 0.10953521680134025 13.570520956458852 -0.9474393900285633 -0.7527202380475403 21.285259414587543 -2.344506385379413 0.7774463400576045 36.68659780248915 -1.8613005028076435 0.46959789178620126 28.31734372827865 -2.2040880244899665 -1.101428689994901 38.59624112966734 -1.5098393551780436 0.302145703949664 22.631778802983202 -1.415118597841976 0.26409502857094724 21.141492272334528 -4.233486882350746 -22.659424409284746 -15.568850738646036 -21.22185330407199 12.813775987052395 -11.46590757092963 -34.083461013472025 1.0991570197880947 -30.062363434329892 64.88435091039933 -77.02368855124574 -71.59018462350681 -173.91398263358036 65.73793167144579 -174.26966790882884 0.24979564854768432 -22.120180924889283 -1.834051347960858 0.0000022215964770185075 0.6066534225544392 -0.0000018688433262198006 -8.645851605192393 -1.9654056581495545 -6.753515298561867 -9.031535738905665 39.734054403111756 -5.589007609834764 -0.49427800109859815 -15.13058714292145 1.938246048393496 -0.000002009948763805535 -2.0406451887718147 -0.00000393286713963671
-0.031908754259347916 -8.75994000044194 -0.03919330611824989 160.80284514207398 -71.67302066486226 -158.07523171869673 1.2765382205214173 33.34585921360372 0.9782950276855201 6.7037619453720705 42.47721527559034 4.17342952673598 0 0 0 1.6716047564214689 16.742416028812674 2.3957842687052184 15.792394753917538 17.58588262652658 -4.778844126647457 0 0 0 0 0 0 -5.198579419275316 4.042810127984795 11.597010380514378 -38.054062831221124 -71.55043851918077 -18.47145602308768 -121.93721483509731 1.1316795791323713 0.6281238577034285 -22.976464143551745 -24.10904716350074 25.233882646665773 5.45931295405325 1.1906942900993 -40.41365248759311 2.7044959718918946 0.7714749819267037 -31.839574069692187 1.7190991378833806 0.2968971121013212 -19.59722340081187 12.25351343207386 3.316009141381329 -44.97620299313748 2.3852696007000325 0.5888052736703888 -27.73053732801615 0.8948778067622907 0.07872771999392453 -10.056286056740106 8.779990582425338 3.542114716155958 -35.99595388027227 3.422673987529394 1.3097581253793225 -41.87303086327584 2.023506846014697 0.41632287661332745 -23.25191154610989 8.091488270583593 2.9332489011684233 -34.61191309192936 2.985540112018009 0.9590909675509594 -35.61387850626371 2.1357071043943034 0.46612094277572796 -24.623278512011897 -5.776268875616956 0.6587782030003072 19.22948386925103 27.822854375748317 17.082753518682033 7.416981562142763 -0.9314094769804755 3.268968178594766 3.92284864559839 32.32067475459702 2.2864363283838824 7.205248534472229 49.241879796910645 -61.834959409753324 11.128192650268943 117.58355572598819 1.0827954305289125 -0.656001547265739 6.326461847350657 -12.659253726364112 -14.67615986770506 -3.022810020495776 0.2068277019630467 18.92981024190787 -1.9095143451968073 0.4960133591676887 29.11969619652561 -1.0565578728850944 0.14494303868288094 15.62239599518694 -0.6553280568548768 -2.4284825809796007 39.44477876845435 -1.9437984163744961 0.5153343690198502 29.69398760358825 -0.9205820544571592 0.10953521680134025 13.570520956458852 -0.9474393900285633 -0.7527202380475403 21.285259414587543 -2.344506385379413 0.7774463400576045 36.68659780248915 -1.8613005028076435 0.46959789178620126 28.31734372827865 -2.2040880244899665 -1.101428689994901 38.59624112966734 -1.5098393551780436 0.302145703949664 22.631778802983202 -1.415118597841976 0.26409502857094724 21.141492272334528 -4.233486882350746 -22.659424409284746 -15.568850738646036 -21.22185330407199 12.813775987052395 -11.46590757092963 -34.083461013472025 1.0991570197880947 -30.062363434329892 53.047198358306055 -77.4086867279671 -58.10114820145053 -170.99860596617012 68.37003709386235 -171.90201015224562 0.17718279853139635 -22.09363190921442 -1.187860567649068 0.0000028217062551417738 0.5413857116903084 -0.0000011994500820371272 -7.710138808636906 -7.138617920984785 -5.534891217790416 -12.21098171057206 49.305852709038206 -8.778903888947847 -0.5236383693375544 -16.67335878578961 0.7163628995536985 0.000005353685893705983 -2.4122889099867972 0.0000035603078627436225
-0.010847944766283035 -8.772801252272995 -0.0149387763813138 162.47066366788013 -71.86719713224154 -161.4898697534037 0.7991837773620395 32.86425827710806 0.355213442057834 5.417612274581799 42.38905993912649 3.20387499824948 0 0 0 1.5491592963460903 16.882830988598382 1.5778236367574552 13.711890353362719 17.22003763557194 -4.513151018621496 0 0 0 0 0 0 -8.904348404704066 4.276464573987206 10.16143146437476 -35.495582361231016 -72.548715533051 -21.14324528907205 -122.2086064362823 1.1346180956333527 0.6262627205750186 -21.989867118555814 -23.945647379813806 22.81766549292538 5.45931295405325 1.1906942900993 -40.41365248759311 2.7044959718918946 0.7714749819267037 -31.839574069692187 1.7190991378833806 0.2968971121013212 -19.59722340081187 12.25351343207386 3.316009141381329 -44.97620299313748 2.3852696007000325 0.5888052736703888 -27.73053732801615 0.8948778067622907 0.07872771999392453 -10.056286056740106 8.779990582425338 3.542114716155958 -35.99595388027227 3.422673987529394 1.3097581253793225 -41.87303086327584 2.023506846014697 0.41632287661332745 -23.25191154610989 8.091488270583593 2.9332489011684233 -34.61191309192936 2.985540112018009 0.9590909675509594 -35.61387850626371 2.1357071043943034 0.46612094277572796 -24.623278512011897 -5.776268875616956 0.6587782030003072 19.22948386925103 27.822854375748317 17.082753518682033 7.416981562142763 -0.9314094769804755 3.268968178594766 3.92284864559839 30.66567277105719 2.518507251606606 6.817690422775799 50.57227331144551 -61.12575734114864 8.854249374653518 117.57961088597722 1.082742593850049 -0.6560109932041978 5.8025470939041055 -12.999320297176373 -15.221141924851533 -3.022810020495776 0.2068277019630467 18.92981024190787 -1.9095143451968073 0.4960133591676887 29.11969619652561 -1.0565578728850944 0.14494303868288094 15.62239599518694 -0.6553280568548768 -2.4284825809796007 39.44477876845435 -1.9437984163744961 0.5153343690198502 29.69398760358825 -0.9205820544571592 0.10953521680134025 13.570520956458852 -0.9474393900285633 -0.7527202380475403 21.285259414587543 -2.344506385379413 0.7774463400576045 36.68659780248915 -1.8613005028076435 0.46959789178620126 28.31734372827865 -2.2040880244899665 -1.101428689994901 38.59624112966734 -1.5098393551780436 0.302145703949664 22.631778802983202 -1.415118597841976 0.26409502857094724 21.141492272334528 -4.233486882350746 -22.659424409284746 -15.568850738646036 -21.22185330407199 12.813775987052395 -11.46590757092963 -34.083461013472025 1.0991570197880947 -30.062363434329892 38.51735377031481 -76.55210239097082 -41.40423610151673 -166.8682678091337 71.23253796624874 -168.18036163255422 0.1746715243779599 -21.921439553759107 -0.7192732449121937 -6.885007435260471e-16 0.5010675169541028 -4.946044995203984e-16 -6.616754458953666 -13.348163051029033 -4.121697596178249 -17.781925449101067 59.77448219100398 -14.674359342092352 -0.49553552838943216 -18.414339127223347 -0.5653197746674107 0.00000238723954697158 -2.573250397854768 0.000005000412912161882
